<svg xmlns="http://www.w3.org/2000/svg" xmlns:xlink="http://www.w3.org/1999/xlink" width="682" height="1139" viewBox="0 0 682 1139">
  <defs>
    <clipPath id="clip-path">
      <circle id="Ellipse_3205" data-name="Ellipse 3205" cx="144" cy="144" r="144" transform="translate(0 0.172)" fill="#3b4543" stroke="#707070" stroke-width="1"/>
    </clipPath>
    <clipPath id="clip-path-2">
      <circle id="Ellipse_3207" data-name="Ellipse 3207" cx="220.5" cy="220.5" r="220.5" transform="translate(1632 678)" fill="#3b4543"/>
    </clipPath>
  </defs>
  <g id="首頁圖檔" transform="translate(-1391 20)">
    <g id="Group_1540" data-name="Group 1540">
      <g id="Group_1537" data-name="Group 1537" transform="translate(22 -95.172)">
        <g id="Mask_Group_5" data-name="Mask Group 5" transform="translate(1369 75)" clip-path="url(#clip-path)">
          <g id="Group_1477" data-name="Group 1477" transform="translate(140.391 -125.016) rotate(45)">
            <rect id="Rectangle_858" data-name="Rectangle 858" width="12.802" height="399.554" transform="translate(0 0)" fill="#3b4543"/>
            <rect id="Rectangle_858-2" data-name="Rectangle 858" width="12.802" height="399.554" transform="translate(24.93 0)" fill="#3b4543"/>
            <rect id="Rectangle_858-3" data-name="Rectangle 858" width="12.802" height="399.554" transform="translate(49.86 0)" fill="#3b4543"/>
            <rect id="Rectangle_858-4" data-name="Rectangle 858" width="12.802" height="399.554" transform="translate(74.79 0)" fill="#3b4543"/>
            <rect id="Rectangle_858-5" data-name="Rectangle 858" width="12.802" height="399.554" transform="translate(99.72 0)" fill="#3b4543"/>
            <rect id="Rectangle_858-6" data-name="Rectangle 858" width="12.802" height="399.554" transform="translate(124.65 0)" fill="#3b4543"/>
            <rect id="Rectangle_858-7" data-name="Rectangle 858" width="12.802" height="399.554" transform="translate(149.58 0)" fill="#3b4543"/>
            <rect id="Rectangle_858-8" data-name="Rectangle 858" width="12.802" height="399.554" transform="translate(174.51 0)" fill="#3b4543"/>
            <rect id="Rectangle_858-9" data-name="Rectangle 858" width="12.802" height="399.554" transform="translate(199.44 0)" fill="#3b4543"/>
            <rect id="Rectangle_858-10" data-name="Rectangle 858" width="12.802" height="399.554" transform="translate(224.37 0)" fill="#3b4543"/>
            <rect id="Rectangle_858-11" data-name="Rectangle 858" width="12.802" height="399.554" transform="translate(249.3 0)" fill="#3b4543"/>
            <rect id="Rectangle_858-12" data-name="Rectangle 858" width="12.802" height="399.554" transform="translate(274.23 0)" fill="#3b4543"/>
            <rect id="Rectangle_858-13" data-name="Rectangle 858" width="12.802" height="399.554" transform="translate(299.16 0)" fill="#3b4543"/>
            <rect id="Rectangle_858-14" data-name="Rectangle 858" width="12.802" height="399.554" transform="translate(324.09 0)" fill="#3b4543"/>
            <rect id="Rectangle_858-15" data-name="Rectangle 858" width="12.802" height="399.554" transform="translate(349.02 0)" fill="#3b4543"/>
          </g>
        </g>
      </g>
      <g id="Mask_Group_10" data-name="Mask Group 10" clip-path="url(#clip-path-2)">
        <g id="Group_1539" data-name="Group 1539" transform="translate(1857.923 514.68) rotate(45)">
          <rect id="Rectangle_908" data-name="Rectangle 908" width="19.144" height="597.493" transform="translate(0 0)" fill="#3b4543"/>
          <rect id="Rectangle_909" data-name="Rectangle 909" width="19.144" height="597.493" transform="translate(37.28 0)" fill="#3b4543"/>
          <rect id="Rectangle_910" data-name="Rectangle 910" width="19.144" height="597.493" transform="translate(74.561 0)" fill="#3b4543"/>
          <rect id="Rectangle_911" data-name="Rectangle 911" width="19.144" height="597.493" transform="translate(111.841 0)" fill="#3b4543"/>
          <rect id="Rectangle_912" data-name="Rectangle 912" width="19.144" height="597.493" transform="translate(149.121 0)" fill="#3b4543"/>
          <rect id="Rectangle_913" data-name="Rectangle 913" width="19.144" height="597.493" transform="translate(186.402 0)" fill="#3b4543"/>
          <rect id="Rectangle_914" data-name="Rectangle 914" width="19.144" height="597.493" transform="translate(223.682 0)" fill="#3b4543"/>
          <rect id="Rectangle_915" data-name="Rectangle 915" width="19.144" height="597.493" transform="translate(260.962 0)" fill="#3b4543"/>
          <rect id="Rectangle_916" data-name="Rectangle 916" width="19.144" height="597.493" transform="translate(298.243 0)" fill="#3b4543"/>
          <rect id="Rectangle_917" data-name="Rectangle 917" width="19.144" height="597.493" transform="translate(335.523 0)" fill="#3b4543"/>
          <rect id="Rectangle_918" data-name="Rectangle 918" width="19.144" height="597.493" transform="translate(372.803 0)" fill="#3b4543"/>
          <rect id="Rectangle_919" data-name="Rectangle 919" width="19.144" height="597.493" transform="translate(410.084 0)" fill="#3b4543"/>
          <rect id="Rectangle_920" data-name="Rectangle 920" width="19.144" height="597.493" transform="translate(447.364 0)" fill="#3b4543"/>
          <rect id="Rectangle_921" data-name="Rectangle 921" width="19.144" height="597.493" transform="translate(484.644 0)" fill="#3b4543"/>
          <rect id="Rectangle_922" data-name="Rectangle 922" width="19.144" height="597.493" transform="translate(521.925 0)" fill="#3b4543"/>
        </g>
      </g>
    </g>
    <text id="TAIWAN" transform="translate(1761 385) rotate(90)" fill="#fff" font-size="65" font-family="NotoSansCJKtc-Bold, Noto Sans CJK TC" font-weight="700" letter-spacing="0.1em" opacity="0.24"><tspan x="-283.14" y="0">TAIWAN</tspan></text>
    <text id="_2020" data-name="2020" transform="translate(1761 600) rotate(90)" fill="#fff" font-size="65" font-family="NotoSansCJKtc-Bold, Noto Sans CJK TC" font-weight="700" letter-spacing="0.1em" opacity="0.24"><tspan x="-172.64" y="0">2020</tspan></text>
    <line id="Line_49" data-name="Line 49" y1="258" transform="translate(1787 630)" fill="none" stroke="#64706d" stroke-width="3"/>
  </g>
</svg>
