<svg xmlns="http://www.w3.org/2000/svg" xmlns:xlink="http://www.w3.org/1999/xlink" width="50" height="50" viewBox="0 0 50 50">
  <defs>
    <clipPath id="clip-path">
      <rect id="Rectangle_886" data-name="Rectangle 886" width="38.302" height="32.607" fill="#fff"/>
    </clipPath>
    <clipPath id="clip-小頁籤">
      <rect width="50" height="50"/>
    </clipPath>
  </defs>
  <g id="小頁籤" clip-path="url(#clip-小頁籤)">
    <rect width="50" height="50" fill="#2c3735"/>
    <g id="Group_1505" data-name="Group 1505" transform="translate(6 9)">
      <g id="Group_1504" data-name="Group 1504" clip-path="url(#clip-path)">
        <rect id="Rectangle_887" data-name="Rectangle 887" width="12.35" height="17.29" transform="translate(13.242 9.974)" fill="#e57199"/>
        <path id="Path_10780" data-name="Path 10780" d="M81.4,59.967l4.134,1.767a3.7,3.7,0,0,1,2,2.048,2.8,2.8,0,0,1,.135.411,3.735,3.735,0,0,1-5.074,4.42L78.82,66.891l-.175-2.7-4.631-6.3,4.3-2.83c0-.281,11.856,2.288,11.651,2.132-.151-.13-9.474,2.093-9.474,2.093a10.776,10.776,0,0,0,.912.681" transform="translate(-65.926 -49.261)" fill="#2c3735"/>
        <path id="Path_10778" data-name="Path 10778" d="M44.463,165.171l-3.626-9.052a1.045,1.045,0,0,0-.97-.657H33.636V159.6h2.849a.287.287,0,0,1,.278.219l.428,1.767a.286.286,0,0,1-.278.354H14.861a.286.286,0,0,1-.278-.354l.433-1.767a.287.287,0,0,1,.278-.218h2.85v-4.134H11.908a1.045,1.045,0,0,0-.97.657l-3.626,9.052a1.045,1.045,0,0,0,.97,1.434h35.21a1.045,1.045,0,0,0,.97-1.434" transform="translate(-6.236 -133.998)" fill="#fff"/>
        <path id="Path_10779" data-name="Path 10779" d="M5,12.6l12.309,5.263a2.118,2.118,0,1,0,1.664-3.9L14.84,12.192a2.552,2.552,0,0,1-1.546-2.09A1.159,1.159,0,0,1,14.4,8.8H24.647a15.31,15.31,0,0,0-1.5-2.053,25.021,25.021,0,0,0-4.074-3.777C17.012,1.472,8.653,1.547,8.653,1.547L6.68.207A1.193,1.193,0,0,0,5.238.283L.342,5.06A1.129,1.129,0,0,0,.25,6.578a18.821,18.821,0,0,1,2.4,3.707A6.233,6.233,0,0,0,5,12.6" transform="translate(0 0)" fill="#fff"/>
      </g>
    </g>
  </g>
</svg>
